<?xml version="1.0" standalone="no"?>
<!DOCTYPE svg PUBLIC "-//W3C//DTD SVG 1.0//EN" "http://www.w3.org/TR/2001/REC-SVG-20010904/DTD/svg10.dtd">
<svg xmlns="http://www.w3.org/2000/svg" xmlns:xlink="http://www.w3.org/1999/xlink" id="body_1" width="256" height="192">

<g transform="matrix(0.375 0 0 0.375 20.000004 -0)">
    <path d="M332.7 19.85C 334.6 8.395 344.5 0 356.1 0C 363.6 0 370.6 3.52 375.1 9.502L375.1 9.502L392 32L444.1 32C 456.8 32 469.1 37.06 478.1 46.06L478.1 46.06L496 64L552 64C 565.3 64 576 74.75 576 88L576 88L576 112C 576 156.2 540.2 192 496 192L496 192L426.7 192L421.6 222.5L309.6 158.5L332.7 19.85zM448 64C 439.2 64 432 71.16 432 80C 432 88.84 439.2 96 448 96C 456.8 96 464 88.84 464 80C 464 71.16 456.8 64 448 64zM416 256.1L416 480C 416 497.7 401.7 512 384 512L384 512L352 512C 334.3 512 320 497.7 320 480L320 480L320 364.8C 295.1 377.1 268.8 384 240 384C 211.2 384 184 377.1 160 364.8L160 364.8L160 480C 160 497.7 145.7 512 128 512L128 512L96 512C 78.33 512 64 497.7 64 480L64 480L64 249.8C 35.23 238.9 12.64 214.5 4.836 183.3L4.836 183.3L0.9558 167.8C -3.331 150.6 7.094 133.2 24.24 128.1C 41.38 124.7 58.76 135.1 63.05 152.2L63.05 152.2L66.93 167.8C 70.49 182 83.29 191.1 97.97 191.1L97.97 191.1L303.8 191.1L416 256.1z" stroke="none" fill="#000000" fill-rule="nonzero" />
</g>
</svg>